<svg xmlns="http://www.w3.org/2000/svg" viewBox="0 0 61.77 36.15"><defs><style>.cls-1{fill:#00572e;}.cls-2{fill:#ed7601;}.cls-3{fill:#e8edd3;}</style></defs><g id="Capa_2" data-name="Capa 2"><g id="Capa_1-2" data-name="Capa 1"><path class="cls-1" d="M31.08,22.63c-.69,1-1.47,2-2.25,2.94C30,25,31,24.3,32.21,23.77a4.27,4.27,0,0,1,1.56-.39A9.8,9.8,0,0,0,39,21.53a7.17,7.17,0,0,0,1.8-1.76c-.16-.08-.24,0-.34,0-3.17,1.38-7.2,1.12-9.46-2.9-.68-1.19-1.36-2.39-2.09-3.55a11.45,11.45,0,0,0-5-4.4,7.79,7.79,0,0,0-3.81-.77l1.25.4a6.27,6.27,0,0,1,2.15,1.14,1.29,1.29,0,0,1,.44,1.62A8.84,8.84,0,0,0,28,22.11c1.22.66,1,.63,1.45-.5.08-.23.15-.47.23-.71a31.46,31.46,0,0,0,.78-3.31,11.35,11.35,0,0,0,2,2.16c.22.16.08.34,0,.5a19.6,19.6,0,0,1-1.38,2.38"/><path class="cls-2" d="M42.79,14c0-.27-.06-.56-.1-.84a8.74,8.74,0,0,0-3-5.54.7.7,0,0,0-1-.07c-.52.41-1.09.77-1.59,1.18a10.34,10.34,0,0,0-3.77,5.36A3.46,3.46,0,0,0,36,18.65a5.57,5.57,0,0,0,5.45-1.44,23.34,23.34,0,0,0,4.08-5.48s0,0-.08-.09L42.79,14m-6.93-2.52a.53.53,0,1,1,.07,1.06.55.55,0,0,1-.58-.55.51.51,0,0,1,.51-.51M35.25,13a.56.56,0,0,1,.63.57c0,.38-.28.52-.6.57s-.62-.19-.62-.54a.54.54,0,0,1,.59-.6m-.67,2.49a.57.57,0,0,1,.62-.64.64.64,0,0,1,.69.66c0,.4-.26.59-.66.6a.6.6,0,0,1-.65-.62m1.56,2.54a.8.8,0,1,1,0-1.59.81.81,0,0,1,.84.89c0,.43-.32.68-.83.7m.53-6.76c-.31,0-.43-.17-.44-.42s.09-.46.4-.44a.45.45,0,0,1,.43.46.38.38,0,0,1-.39.4m.72-1.08a.3.3,0,0,1-.34-.36.32.32,0,0,1,.4-.3c.22,0,.27.17.27.35a.3.3,0,0,1-.33.31m.72-.77a.31.31,0,0,1-.32-.32.27.27,0,0,1,.32-.3c.21,0,.26.18.27.35a.24.24,0,0,1-.27.27"/><path class="cls-2" d="M37.56,5.64A2.85,2.85,0,0,1,36,5.58a10,10,0,0,0-9.88,2.26c-.38.34-.41.52.1.79a16.23,16.23,0,0,1,4.67,3.52c.38.43.55.22.74-.13a13.52,13.52,0,0,1,4.43-4.6c1.19-.81,2.47-1.45,3.77-2.17a1.71,1.71,0,0,0-.32,0c-.66.12-1.33.23-2,.39m-6.39,4.83a1.64,1.64,0,0,1-1.56-1.6A1.59,1.59,0,0,1,31.3,7.43,1.48,1.48,0,0,1,32.86,9a1.54,1.54,0,0,1-1.69,1.43"/><path class="cls-2" d="M28.29,22.91c-3.81-2.06-5.7-5.13-5.53-9.29a8.36,8.36,0,0,1,.62-2.7c.12-.3.17-.65-.26-.77s-.43.23-.52.48a9.44,9.44,0,0,0-.68,3.92,9.94,9.94,0,0,0,2.16,6,10.75,10.75,0,0,0,4,3.14c.19.08.4.23.58,0s.25-.33.09-.5a1.41,1.41,0,0,0-.43-.26"/><path class="cls-1" d="M25.39,7.78l.13-.14c3.1-3,6.77-3.75,11-2.52a1.87,1.87,0,0,0,1,0c.16,0,.41,0,.44-.2s-.22-.22-.37-.28a11.59,11.59,0,0,0-4.43-.92,13.75,13.75,0,0,0-2.4.24,11.08,11.08,0,0,0-6,3.23c-.14.15-.42.34-.15.57a.54.54,0,0,0,.76,0"/><path class="cls-2" d="M41.59,19.73A10.35,10.35,0,0,1,33.44,24a2.12,2.12,0,0,0-1.56.67c5.64.63,10.54-3,11.73-7.27a11.26,11.26,0,0,0-2,2.33"/><path class="cls-1" d="M43.61.19h0c-.37-.3-.79-.16-1.19-.14-1.86.34-3.41,2-3.21,3.57l.35-.46a1.16,1.16,0,0,1,.66-.7l-.52.84a1.4,1.4,0,0,0-.13.34c0,.2-.27.4-.09.57s.41,0,.62,0a3.14,3.14,0,0,0,2.41-2,7.87,7.87,0,0,1,1.1-2Z"/><path class="cls-2" d="M18.1,6.37a3.25,3.25,0,0,0,2.78,1.08c.17,0,.4,0,.46-.14s-.07-.28-.15-.39A6.25,6.25,0,0,0,20,5.7c.72.15,1,.69,1.52,1a3.93,3.93,0,0,0-5.28-2.22A10.62,10.62,0,0,1,18.1,6.37"/><path class="cls-1" d="M41.73,4.88a6.75,6.75,0,0,1,1.45-.07c-.55.16-1,.28-1.46.42s-.52.32-.11.61a3,3,0,0,0,2.53.49A11.56,11.56,0,0,1,47,5.67a3.61,3.61,0,0,0-5.24-.79"/><path class="cls-2" d="M19.65,8.89A9.63,9.63,0,0,0,18,8.9a3.93,3.93,0,0,1,1.38-.37,3.51,3.51,0,0,0-4.59,1.74c-.09.29,0,.33.28.29a21.52,21.52,0,0,1,2.54,0,2.77,2.77,0,0,0,2.23-1.2c.25-.31.11-.41-.23-.46"/><path class="cls-1" d="M40.73,6.68a.6.6,0,0,0-.77.11c-.25.26.1.35.23.46a10.31,10.31,0,0,1,2.23,2.95,15.26,15.26,0,0,1,.91,2.62,1,1,0,0,0,.49-1.29A10.83,10.83,0,0,0,41,6.93a1.37,1.37,0,0,0-.29-.25"/><path class="cls-3" d="M39.56,3.16l.14.14c0-.16,0-.33.08-.38a.61.61,0,0,1-.22.24"/><path class="cls-3" d="M39.56,3.16a.61.61,0,0,0,.22-.24c-.05.05,0,.22-.08.38l.52-.84a1.16,1.16,0,0,0-.66.7"/><path class="cls-2" d="M2,36.14A6,6,0,0,0,5,35a1.06,1.06,0,0,0,.11-1.77,4.37,4.37,0,0,0-.37-.29c.33-.22.62-.37.86-.57.45-.39.91-.79.88-1.43a2.15,2.15,0,0,0-1.57-1.8,7.39,7.39,0,0,0-4.18.52A.29.29,0,0,0,.5,30L0,34.7a.63.63,0,0,0,.09.54A2.3,2.3,0,0,0,2,36.14Zm.59-5A.54.54,0,0,1,3,30.73a3.43,3.43,0,0,1,1-.2c.21,0,.47,0,.56.19s-.08.36-.22.49a4.54,4.54,0,0,1-2.09,1.12C2.41,31.87,2.52,31.5,2.61,31.12Zm-.9,3.5c0-.11.06-.21.08-.32.17-.71.22-.75,1.06-.77.26,0,.67-.09.77.26s-.31.49-.56.63A3.55,3.55,0,0,1,2,34.85C1.76,34.9,1.64,34.85,1.71,34.62Z"/><path class="cls-1" d="M41.18,36c.76.16.75.15.89-.55.08-.41.2-.81.31-1.22a.89.89,0,0,1,.45.31,10.63,10.63,0,0,0,1.69,1.29,1.55,1.55,0,0,0,1.28.1c.41-.11.43-.3.11-.57-.52-.46-1-.92-1.56-1.37-.21-.18-.23-.29.08-.41a6.1,6.1,0,0,0,2-1.19A1.43,1.43,0,0,0,47,31.31a2.5,2.5,0,0,0-2.91-2.25,12.78,12.78,0,0,0-2,.59,1.09,1.09,0,0,0-.8.85,32,32,0,0,0-.71,4.66C40.45,35.74,40.57,35.85,41.18,36Zm2-4.49A1.43,1.43,0,0,1,45,30.67c.33.13.28.35.14.57a3.57,3.57,0,0,1-1.34,1.09,2.47,2.47,0,0,1-1,.34C42.92,32.24,43,31.87,43.15,31.49Z"/><path class="cls-1" d="M47.41,36c.32.1.56.08.66-.26a1.54,1.54,0,0,1,1.67-1.13,5.38,5.38,0,0,0,.69-.07c.62-.08.62-.08.7.51.11.93.26,1.05,1.22,1,.32,0,.44-.1.44-.41,0-1.82,0-3.65.17-5.61,0-.55,0-.62-.73-.8A11.38,11.38,0,0,0,50.68,29a1.16,1.16,0,0,0-1.26.67,53,53,0,0,0-2.6,5.09C46.47,35.57,46.55,35.73,47.41,36ZM51,30.83c0,.68,0,1.36,0,2,0,.25-.12.32-.34.34l-1.25.12A14.28,14.28,0,0,1,51,30.83Z"/><path class="cls-2" d="M9.19,34.05a2.1,2.1,0,0,0,1.61,1.87,2.74,2.74,0,0,0,3.51-1.26,6.16,6.16,0,0,0,.82-3.24,1.91,1.91,0,0,0-1.22-2,2.78,2.78,0,0,0-3.56.68h0A4.85,4.85,0,0,0,9.19,34.05Zm2.05-1.28a5.41,5.41,0,0,1,.84-1.68h0a1.36,1.36,0,0,1,.6-.54c.54-.07.53.4.54.64a5.18,5.18,0,0,1-1.06,3.6.66.66,0,0,1-.64.29c-.29,0-.35-.29-.41-.52A3.21,3.21,0,0,1,11.24,32.77Z"/><path class="cls-1" d="M30,30.86c.5-.1.51.05.42.44a30.58,30.58,0,0,0-.65,3.54c-.1.87,0,1,.92,1.2.55.13.62.08.74-.44.36-1.6.8-3.18,1.26-4.76a.38.38,0,0,1,.42-.33c.44,0,.88-.09,1.33-.13.19,0,.3-.08.27-.29a1.2,1.2,0,0,0-1.18-1c-.56,0-1.07.05-1.58.09-1.1.09-2.2.19-3.29.37-.19,0-.41,0-.32.34A1.34,1.34,0,0,0,30,30.86Z"/><path class="cls-2" d="M54.14,31.7c0,.12.06.28.21.28s.15-.17.19-.28a5.54,5.54,0,0,0,.22-2.06A3.79,3.79,0,0,1,55,31.46c1.43-1.67-.38-4.19-2-5a7.63,7.63,0,0,1,.22,1A16,16,0,0,0,54.14,31.7Z"/><path class="cls-1" d="M22,29.67a1.49,1.49,0,0,0-1.55-.46h0a1.48,1.48,0,0,0-.27.53,29.76,29.76,0,0,0-.79,3.09c0,.09,0,.22-.17.25-.13-.64-.28-1.28-.41-1.92-.3-1.55-.36-1.6-2-2-.4-.09-.62,0-.71.4a44.77,44.77,0,0,0-.83,5.27c-.08.83,0,.9.86,1.12l.15,0c.36.12.53,0,.59-.36.18-1,.4-2,.6-3,.37.83.61,1.66,1,2.46a1.86,1.86,0,0,0,1.73.92.36.36,0,0,0,.33-.3c.46-1.67.93-3.34,1.39-5h0C22,30.34,22.15,29.85,22,29.67Z"/><path class="cls-2" d="M6.48,35.85l.71.2c.3.09.45,0,.52-.32.36-1.42.74-2.83,1.1-4.25.14-.41.27-.83.42-1.23A.4.4,0,0,0,9,29.7a2.85,2.85,0,0,0-1.2-.47l-.08,0c-.51-.1-.64.05-.71.76a46.28,46.28,0,0,0-1,5.23A.53.53,0,0,0,6.48,35.85Z"/><path class="cls-1" d="M61.31,29.74c-1.51-1-2.59-1.1-3.78-.07a4.45,4.45,0,0,0-1,1.19,1.76,1.76,0,0,0,.61,2.58c.55.36,1.15.67,1.71,1,.16.09.42.16.34.4s-.36.18-.57.16a4.57,4.57,0,0,1-1.51-.55,1.67,1.67,0,0,0-1.24-.13c-.35.09-.39.29-.14.5a4.14,4.14,0,0,0,2,1.14,3.38,3.38,0,0,0,2.4-.2h0c1-.53,1.37-1.31.17-2-.53-.29-1-.6-1.54-.93a.84.84,0,0,1-.33-1.29,2.53,2.53,0,0,1,.5-.63c.2-.19.45-.53.72-.38s0,.5,0,.72c-.35.81-.11,1.25.92,1.61a.45.45,0,0,0,.65-.23,5.07,5.07,0,0,0,.56-2A1,1,0,0,0,61.31,29.74Z"/><path class="cls-1" d="M27.61,29.53a.32.32,0,0,0-.12-.08,6,6,0,0,0-2-.42,1.54,1.54,0,0,0-.71,0,1.47,1.47,0,0,0-.62.66c-.5.88-1,1.76-1.45,2.66s-.88,1.82-1.26,2.75c0,.08-.11.2-.1.28a.48.48,0,0,0,.15.22A1.29,1.29,0,0,0,22,36a.86.86,0,0,0,.47.09.7.7,0,0,0,.47-.43,2.65,2.65,0,0,1,.3-.58,1.57,1.57,0,0,1,1.09-.4l1.27-.14a.34.34,0,0,1,.2,0,.29.29,0,0,1,.09.15,3.82,3.82,0,0,1,.06.68.79.79,0,0,0,.29.6.86.86,0,0,0,.42.12,2.52,2.52,0,0,0,.55,0,.41.41,0,0,0,.3-.1.47.47,0,0,0,.09-.31l0-6a.24.24,0,0,0,0-.15Zm-2.14,3.68c-.25,0-.49,0-.74.06s-.35.15-.45,0,.1-.28.17-.41l1.17-2,.14,0c0,.68,0,1.36,0,2C25.77,33.12,25.66,33.2,25.47,33.21Z"/><path class="cls-1" d="M39.49,29.22l-.14,0c-.53-.14-.63-.08-.75.43a21.17,21.17,0,0,1-1.5,5,.86.86,0,0,1-.36.4c-.41.11-.6-.07-.61-.44a4,4,0,0,1,0-1,18,18,0,0,1,.83-3,.71.71,0,0,0-.31-.93,3.22,3.22,0,0,0-1.08-.45c-.23-.06-.43,0-.51.23a12.66,12.66,0,0,0-.83,4.62,1.82,1.82,0,0,0,1.41,1.79c1.89.53,2.8,0,3.49-1.3a17.65,17.65,0,0,0,1.27-3.73C40.75,29.75,40.66,29.6,39.49,29.22Z"/></g></g></svg>